<?xml version="1.0" standalone="no"?>
<!DOCTYPE svg PUBLIC "-//W3C//DTD SVG 20010904//EN"
 "http://www.w3.org/TR/2001/REC-SVG-20010904/DTD/svg10.dtd">
<svg version="1.0" xmlns="http://www.w3.org/2000/svg"
 width="260.000000pt" height="260.000000pt" viewBox="0 0 260.000000 260.000000"
 preserveAspectRatio="xMidYMid meet">
<metadata>
Created by potrace 1.11, written by Peter Selinger 2001-2013
</metadata>
<g transform="translate(0.000000,260.000000) scale(0.100000,-0.100000)"
fill="#000000" stroke="none">
<path d="M1142 2573 c-1 -10 -4 -27 -6 -38 -2 -11 -5 -26 -5 -34 -1 -10 -4
-11 -15 -2 -11 9 -15 4 -22 -26 -4 -21 -8 -41 -9 -45 -2 -5 -3 -14 -4 -20 -1
-8 -7 -6 -16 6 -9 11 -20 16 -30 12 -12 -4 -19 0 -22 14 -3 11 -9 20 -13 20
-5 0 -12 9 -15 21 -4 11 -9 19 -11 17 -2 -2 -13 -51 -24 -109 -12 -57 -23
-113 -26 -124 -2 -11 -6 -31 -9 -45 -3 -14 -7 -36 -10 -50 -3 -14 -8 -38 -11
-54 -7 -41 -5 -39 -99 -81 -47 -21 -85 -43 -85 -49 0 -6 -41 -29 -91 -51 l-90
-39 36 -33 c20 -18 39 -33 43 -33 4 0 21 -14 39 -30 18 -17 36 -30 42 -30 5 0
11 -3 13 -7 2 -5 32 -30 68 -58 36 -27 68 -53 71 -57 3 -5 7 -59 8 -121 2 -62
4 -137 6 -167 1 -30 3 -82 4 -114 l1 -60 30 29 c17 16 31 23 31 17 1 -7 3 -21
4 -32 1 -11 3 -30 4 -42 1 -17 31 9 146 126 156 160 143 153 224 120 18 -8 42
-14 52 -14 11 0 19 -4 19 -8 0 -8 6 -10 49 -14 11 -1 17 -6 15 -10 -3 -4 6 -8
19 -8 13 0 27 -3 31 -7 4 -5 12 -9 17 -9 5 -1 10 -2 12 -4 1 -1 9 -3 17 -5 8
-2 23 -6 33 -10 16 -7 17 -4 11 21 -4 16 -11 37 -16 46 -9 19 3 20 45 5 47
-18 50 -18 37 -2 -7 8 -10 15 -7 15 4 0 0 18 -8 41 -16 44 -21 42 45 23 11 -3
20 -2 20 1 0 4 -21 68 -46 143 -25 76 -47 144 -49 153 -2 8 -10 32 -19 52 -8
20 -12 37 -9 37 3 0 0 6 -6 14 -9 11 -6 24 12 57 35 63 86 157 111 204 11 22
25 43 29 46 5 3 8 9 8 13 -1 3 6 21 16 39 21 40 25 59 10 50 -7 -4 -25 -8 -42
-9 -16 -1 -64 -5 -105 -8 -41 -4 -107 -9 -146 -11 l-71 -5 -34 52 c-18 29 -37
60 -40 68 -4 9 -14 22 -23 29 -9 7 -16 17 -16 22 0 12 -111 179 -119 179 -4 0
-8 -8 -9 -17z"/>
<path d="M665 1270 c-3 -5 -14 -7 -25 -5 -11 2 -22 0 -25 -6 -4 -5 -6 -191 -7
-413 l0 -405 28 -52 c32 -58 81 -88 146 -89 l36 0 -1 62 c-2 62 -3 63 -31 65
-62 5 -61 -6 -62 433 0 220 -3 402 -6 405 -10 10 -48 14 -53 5z"/>
<path d="M1889 1136 c-2 -2 -22 -6 -44 -10 -22 -3 -41 -5 -41 -6 -1 0 -2 -19
-2 -42 -1 -87 0 -85 -27 -83 -24 3 -25 2 -25 -61 0 -62 1 -64 25 -64 14 0 25
-3 26 -7 0 -5 1 -102 3 -218 1 -182 4 -215 20 -248 23 -46 70 -84 115 -92 19
-3 37 -8 41 -10 16 -10 30 15 33 63 4 55 -9 79 -38 68 -8 -3 -15 -1 -15 5 0 6
-5 7 -10 4 -11 -7 -33 42 -25 55 3 5 2 11 -2 13 -10 6 -9 109 1 125 4 7 4 12
-1 12 -4 0 -8 50 -7 112 l0 112 26 7 c15 4 30 4 33 1 3 -4 5 23 3 58 -4 57 -7
65 -24 63 -25 -2 -38 22 -39 80 -1 26 -3 52 -3 57 -2 10 -15 14 -23 6z"/>
<path d="M1403 1009 c-52 -9 -82 -25 -109 -56 l-21 -24 5 30 c2 17 0 31 -4 32
-5 1 -30 2 -56 3 -42 2 -48 0 -49 -18 0 -12 -1 -167 -1 -345 -1 -321 -1 -325
20 -332 12 -5 24 -4 26 0 3 5 17 6 32 3 30 -5 47 13 34 38 -5 9 -6 21 -2 27 4
6 7 100 6 210 -1 213 0 219 55 272 34 33 119 38 154 11 41 -33 50 -88 54 -325
1 -121 5 -226 8 -234 4 -10 8 -11 19 -2 10 8 16 9 21 1 4 -6 13 -7 23 -1 9 4
23 6 30 4 14 -5 14 -14 13 232 0 175 -3 226 -17 280 -10 39 -39 100 -56 119
-10 11 -18 23 -18 26 0 11 -97 53 -108 46 -6 -3 -12 -3 -14 2 -1 4 -22 5 -45
1z"/>
<path d="M142 989 c-64 -32 -110 -101 -131 -199 -6 -25 -9 -101 -8 -170 3
-146 24 -210 89 -271 72 -68 203 -79 269 -22 14 12 16 8 18 -41 1 -29 -3 -65
-8 -79 -27 -70 -156 -99 -228 -50 l-37 25 -37 -41 -37 -40 29 -30 c45 -47 87
-65 165 -67 57 -3 80 1 124 22 70 32 122 88 136 145 4 19 8 212 8 429 l1 396
-55 -1 -55 0 1 -34 2 -33 -22 24 c-51 60 -146 75 -224 37z m145 -120 c21 -7
46 -27 64 -51 l29 -41 0 -156 c0 -86 -4 -162 -8 -169 -5 -7 -17 -14 -28 -17
-10 -2 -36 -9 -56 -14 -25 -6 -38 -5 -38 1 0 6 -6 5 -15 -2 -11 -9 -18 -10
-28 -1 -8 6 -16 9 -19 6 -10 -10 -57 54 -63 87 -9 44 -10 203 -2 251 18 99 75
136 164 106z"/>
<path d="M2293 1003 c-13 -2 -23 -9 -23 -14 0 -6 -4 -8 -9 -5 -14 9 -78 -58
-96 -100 -19 -46 -19 -131 0 -177 31 -75 106 -116 218 -120 15 0 27 -4 27 -9
0 -4 8 -8 18 -8 67 -2 74 -102 9 -133 -28 -14 -99 -17 -127 -6 -3 1 -8 1 -11
1 -3 -1 -30 18 -59 40 l-54 41 -20 -25 c-64 -77 -62 -65 -15 -109 63 -58 122
-83 204 -85 107 -4 194 47 231 135 19 45 14 151 -10 198 -17 33 -75 75 -111
81 -30 5 -50 10 -50 12 0 1 -20 3 -45 5 -57 3 -88 19 -100 51 -21 55 33 107
104 98 57 -7 58 -7 101 -35 l39 -26 33 43 c18 23 33 48 33 54 0 19 -53 59
-108 80 -49 19 -122 24 -179 13z"/>
<path d="M934 991 c-2 -2 -4 -156 -4 -342 0 -325 1 -339 19 -349 13 -7 22 -7
26 0 4 7 13 7 26 0 13 -7 19 -7 19 0 0 5 6 9 13 8 9 -2 12 71 12 342 l0 344
-53 1 c-29 0 -55 -1 -58 -4z"/>
</g>
</svg>
